<?xml version="1.0" encoding="UTF-8" standalone="no"?>
<svg
   xmlns:dc="http://purl.org/dc/elements/1.1/"
   xmlns:cc="http://creativecommons.org/ns#"
   xmlns:rdf="http://www.w3.org/1999/02/22-rdf-syntax-ns#"
   xmlns:svg="http://www.w3.org/2000/svg"
   xmlns="http://www.w3.org/2000/svg"
   xmlns:sodipodi="http://sodipodi.sourceforge.net/DTD/sodipodi-0.dtd"
   xmlns:inkscape="http://www.inkscape.org/namespaces/inkscape"
   version="1.1"
   id="Layer_1"
   x="0px"
   y="0px"
   viewBox="0 0 65 65"
   enable-background="new 0 0 96 96"
   xml:space="preserve"
   width="100%"
   height="100%"
   sodipodi:docname="about.svg"
   inkscape:version="1.0.2 (e86c870879, 2021-01-15, custom)"><metadata
   id="metadata13"><rdf:RDF><cc:Work
       rdf:about=""><dc:format>image/svg+xml</dc:format><dc:type
         rdf:resource="http://purl.org/dc/dcmitype/StillImage" /></cc:Work></rdf:RDF></metadata><defs
   id="defs11" /><sodipodi:namedview
   pagecolor="#ffffff"
   bordercolor="#666666"
   borderopacity="1"
   objecttolerance="10"
   gridtolerance="10"
   guidetolerance="10"
   inkscape:pageopacity="0"
   inkscape:pageshadow="2"
   inkscape:window-width="1920"
   inkscape:window-height="1015"
   id="namedview9"
   showgrid="false"
   inkscape:zoom="3.2269231"
   inkscape:cx="115.09978"
   inkscape:cy="7.5509523"
   inkscape:window-x="1366"
   inkscape:window-y="37"
   inkscape:window-maximized="1"
   inkscape:current-layer="Layer_1"
   inkscape:document-rotation="0" />

<path
   style="fill:#0066b3;stroke-width:0.127337;fill-opacity:0.64999998"
   d="m 15.31979,63.854369 c 0.0353,-0.07003 3.099422,-4.854737 6.809118,-10.632673 L 28.873787,42.71636 25.769722,42.68231 c -1.70724,-0.01873 -3.101228,-0.07604 -3.097758,-0.127337 0.0036,-0.0513 2.543478,-3.187576 5.644455,-6.969495 L 33.954543,28.70926 29.582132,28.645595 25.209709,28.58193 39.05392,14.739536 C 46.668258,7.1262212 52.916561,0.91554954 52.939059,0.93804651 52.961557,0.96053271 51.020313,3.9807166 48.625203,7.6495429 46.230082,11.31837 43.113344,16.096498 41.69913,18.267598 l -2.571313,3.947463 3.799342,0.03369 3.799319,0.03369 -5.705643,6.969858 -5.705655,6.96986 3.76672,0.06368 3.766719,0.06367 -13.796522,13.816107 C 21.464016,57.764463 15.284475,63.92441 15.31979,63.854374 Z M 30.496898,61.67399 c -2.691403,-0.290692 -5.076651,-0.778726 -6.922961,-1.416469 l -0.683418,-0.236067 0.938653,-0.995041 0.938676,-0.995042 1.336463,0.331046 c 2.551555,0.632013 3.700302,0.767058 6.557318,0.770866 2.92676,0.0039 4.318978,-0.162036 6.876229,-0.819551 7.288066,-1.8739 13.619661,-7.022803 17.070712,-13.882047 4.570658,-9.084547 3.596248,-19.837061 -2.53826,-28.009589 -1.030272,-1.372548 -3.026781,-3.492795 -4.081347,-4.334295 -0.390391,-0.311514 -0.709793,-0.606747 -0.709793,-0.656075 0,-0.04933 0.296425,-0.548286 0.658729,-1.108798 l 0.658742,-1.0191092 0.515064,0.4070827 c 0.283286,0.2238975 0.970318,0.8324465 1.526728,1.3523335 4.943673,4.619175 8.021566,10.45537 9.071106,17.200332 0.317499,2.040444 0.31702,6.369251 -0.0011,8.404267 -0.49995,3.199844 -1.445723,6.154849 -2.873256,8.977286 -1.407224,2.782254 -3.011463,5.01841 -5.198345,7.245965 -4.584444,4.669719 -10.178948,7.541253 -16.645903,8.543982 -1.243047,0.192736 -5.47895,0.348579 -6.494203,0.238923 z M 15.253684,55.932325 C 13.629125,54.714939 11.238037,52.403519 9.946618,50.802087 6.6521803,46.716739 4.5570386,41.946027 3.7373154,36.663295 c -0.3147349,-2.028419 -0.3147349,-6.366771 0,-8.39519 C 6.303734,11.728464 21.804516,0.64363645 38.102439,3.6931242 c 1.977027,0.3699189 5.484096,1.4454689 6.210572,1.9046577 0.154375,0.09758 0.0084,0.3021085 -0.764029,1.0667398 L 42.593947,7.6105313 40.936024,7.0599473 C 34.023235,4.764281 26.330585,5.487858 19.864217,9.0419724 15.481382,11.450922 11.661792,15.269156 9.2978451,19.604624 5.8447235,25.937596 5.0689796,33.102744 7.0851025,40.042277 8.6411978,45.398338 12.244806,50.547535 16.770922,53.882362 l 1.282671,0.945062 -0.654565,1.040771 c -0.360019,0.572425 -0.695098,1.042014 -0.744618,1.043529 -0.04954,0.0014 -0.679851,-0.439213 -1.400726,-0.979399 z"
   id="path880" /></svg>
