<?xml version="1.0" encoding="UTF-8" standalone="no"?>
<svg
   xmlns:dc="http://purl.org/dc/elements/1.1/"
   xmlns:cc="http://creativecommons.org/ns#"
   xmlns:rdf="http://www.w3.org/1999/02/22-rdf-syntax-ns#"
   xmlns:svg="http://www.w3.org/2000/svg"
   xmlns="http://www.w3.org/2000/svg"
   xmlns:sodipodi="http://sodipodi.sourceforge.net/DTD/sodipodi-0.dtd"
   xmlns:inkscape="http://www.inkscape.org/namespaces/inkscape"
   viewBox="0 0 48 48"
   version="1.1"
   id="svg10"
   sodipodi:docname="class.svg"
   inkscape:version="1.0.2 (e86c870879, 2021-01-15, custom)">
  <metadata
     id="metadata16">
    <rdf:RDF>
      <cc:Work
         rdf:about="">
        <dc:format>image/svg+xml</dc:format>
        <dc:type
           rdf:resource="http://purl.org/dc/dcmitype/StillImage" />
      </cc:Work>
    </rdf:RDF>
  </metadata>
  <defs
     id="defs14" />
  <sodipodi:namedview
     pagecolor="#ffffff"
     bordercolor="#666666"
     borderopacity="1"
     objecttolerance="10"
     gridtolerance="10"
     guidetolerance="10"
     inkscape:pageopacity="0"
     inkscape:pageshadow="2"
     inkscape:window-width="1920"
     inkscape:window-height="1015"
     id="namedview12"
     showgrid="false"
     inkscape:zoom="8.0000002"
     inkscape:cx="22.966891"
     inkscape:cy="33.40758"
     inkscape:window-x="1366"
     inkscape:window-y="37"
     inkscape:window-maximized="1"
     inkscape:current-layer="svg10"
     inkscape:document-rotation="0" />
  <rect
     style="opacity:1;fill:none;fill-opacity:0.65;fill-rule:evenodd;stroke:#0066b3;stroke-width:3.1251;stroke-linecap:round;stroke-linejoin:round;stroke-miterlimit:4;stroke-dasharray:none;stroke-opacity:1"
     id="rect842"
     width="44.854282"
     height="45.180706"
     x="1.7100796"
     y="1.662825"
     ry="0" />
  <path
     style="fill:#0066b3;fill-opacity:1;stroke-width:0.16808"
     d="m 17.895219,42.205121 c -0.0372,-0.03402 -0.407994,-0.10572 -0.823989,-0.159321 -0.416001,-0.0536 -0.94545,-0.142014 -1.17656,-0.196471 -0.23111,-0.05444 -0.602082,-0.136563 -0.824382,-0.182444 -0.2223,-0.04591 -0.562658,-0.171688 -0.756353,-0.279565 -0.1937,-0.107877 -0.396138,-0.198821 -0.449869,-0.202096 -0.26304,-0.01597 -1.835228,-0.837694 -1.835228,-0.959128 0,-0.07664 -0.1142,-0.139347 -0.25376,-0.139347 -0.139577,0 -0.383291,-0.151268 -0.541594,-0.336158 -0.1583,-0.184891 -0.333616,-0.336157 -0.389576,-0.336157 -0.158103,0 -2.4793392,-2.359593 -2.5804516,-2.623082 -0.049451,-0.128857 -0.1679069,-0.234273 -0.2632491,-0.234273 -0.095345,0 -0.1733575,-0.11346 -0.1733575,-0.252121 0,-0.138671 -0.063086,-0.252119 -0.1402024,-0.252119 -0.1688076,0 -1.493547,-2.766823 -1.6095128,-3.361593 -0.045071,-0.231108 -0.1264852,-0.609289 -0.1809424,-0.840397 -0.4360254,-1.850373 -0.4385729,-4.161688 -0.00642,-5.882787 0.057998,-0.23111 0.1437428,-0.60599 0.1904967,-0.833069 0.1429854,-0.694511 1.0960617,-2.864683 1.2580865,-2.864683 0.083818,0 0.1524046,-0.114184 0.1524046,-0.253764 0,-0.139577 0.1512683,-0.383287 0.3361579,-0.541594 0.1848896,-0.1583 0.3361629,-0.384471 0.3361629,-0.502592 0,-0.11812 0.080723,-0.214767 0.1794044,-0.214767 0.1207545,0 0.1372218,-0.288457 0.050357,-0.882416 -0.159255,-1.089037 -0.1687187,-2.704126 -0.020436,-3.487654 0.140647,-0.743113 0.2617045,-1.260596 0.2949009,-1.260596 0.014162,0 0.050785,-0.130503 0.081431,-0.290011 0.1059011,-0.551328 0.63702,-1.810985 0.7635875,-1.810985 0.069871,0 0.1744822,-0.189089 0.2324866,-0.420199 0.057998,-0.231108 0.1796628,-0.420199 0.2703461,-0.420199 0.09069,0 0.164874,-0.08365 0.164874,-0.185909 0,-0.102245 0.18909,-0.334647 0.4202,-0.516438 0.23111,-0.181792 0.420202,-0.400675 0.420202,-0.486409 0,-0.20228 0.625914,-0.828198 0.828197,-0.828198 0.08573,0 0.30462,-0.1890897 0.486408,-0.4201997 0.181791,-0.231109 0.414187,-0.420199 0.516439,-0.420199 0.102245,0 0.185905,-0.0742 0.185905,-0.164877 0,-0.09069 0.189092,-0.212337 0.420201,-0.270342 0.23111,-0.058 0.420202,-0.16263 0.420202,-0.232486 0,-0.126568 1.259655,-0.657698 1.810984,-0.763589 0.159502,-0.030646 0.29001,-0.067286 0.29001,-0.081414 0,-0.032918 0.511595,-0.1529315 1.260598,-0.2957094 1.681917,-0.3206227 3.901006,-0.06386 5.756726,0.6660894 0.531552,0.209088 0.966459,0.438196 0.966459,0.509128 0,0.07094 0.114201,0.128972 0.253761,0.128972 0.139576,0 0.383289,0.151268 0.541594,0.336158 0.158299,0.184888 0.366278,0.33616 0.46216,0.33616 0.09589,0 0.268809,0.151268 0.384271,0.336159 0.115468,0.1848877 0.290334,0.3361597 0.388596,0.3361597 0.224493,0 0.65889,0.425481 0.65889,0.645372 0,0.09083 0.226909,0.356072 0.504238,0.589431 0.27733,0.23336 0.504239,0.498506 0.504239,0.589212 0,0.09072 0.0662,0.190136 0.147086,0.220952 0.189578,0.07221 1.159398,2.000036 1.266488,2.517557 0.04507,0.217703 0.128033,0.584913 0.184392,0.816023 0.05637,0.23111 0.130092,0.533653 0.163833,0.672319 0.03377,0.138671 0.06714,0.489842 0.07422,0.780394 0.0071,0.290552 0.107811,0.564714 0.223881,0.609253 0.241921,0.09283 3.289832,-1.172974 3.624799,-1.505392 0.122154,-0.121232 0.330154,-0.220414 0.462213,-0.220414 0.132068,0 0.240119,-0.07563 0.240119,-0.16808 0,-0.09245 0.113444,-0.16808 0.252119,-0.16808 0.138671,0 0.252121,-0.07563 0.252121,-0.16808 0,-0.09245 0.113443,-0.16808 0.252119,-0.16808 0.138671,0 0.25212,-0.07563 0.25212,-0.168079 0,-0.09245 0.115831,-0.16808 0.25739,-0.16808 0.141569,0 0.300935,-0.11346 0.354144,-0.252119 0.05319,-0.138671 0.201465,-0.252119 0.329457,-0.252119 0.128,0 0.327185,-0.151268 0.442647,-0.33616 0.115469,-0.184888 0.29736,-0.336159 0.404216,-0.336159 0.106856,0 0.42671,-0.264725 0.710793,-0.588279 0.284079,-0.323554 0.576842,-0.588278 0.650573,-0.588278 0.159897,0 3.742041,-3.5702197 3.742041,-3.7295887 0,-0.06072 0.221517,-0.331906 0.492267,-0.602651 0.487942,-0.4879429 0.493091,-0.4889786 0.586252,-0.117807 0.05169,0.205953 0.0607,0.667472 0.02001,1.025598 -0.04069,0.358126 -0.11756,1.3015697 -0.170829,2.0965437 -0.0533,0.794974 -0.124146,1.589152 -0.157476,1.764836 -0.03335,0.175684 -0.110314,0.697608 -0.171033,1.159826 -0.116143,0.884123 -0.20245,1.406574 -0.347064,2.100997 -0.04813,0.231108 -0.123768,0.609287 -0.168081,0.840397 -0.08927,0.465553 -0.208484,1.002014 -0.336158,1.512717 -0.195528,0.782108 -0.274007,1.115061 -0.352774,1.496699 -0.04591,0.2223 -0.158118,0.543752 -0.249421,0.714338 -0.0913,0.170587 -0.130306,0.310157 -0.0867,0.310157 0.09223,0 -0.82042,2.748959 -1.017516,3.064818 -0.07302,0.117 -0.15532,0.357838 -0.182896,0.535192 -0.07058,0.453791 -2.424117,5.308209 -2.573556,5.308209 -0.06758,0 -0.170348,0.189091 -0.228352,0.420199 -0.058,0.23111 -0.179656,0.420199 -0.270341,0.420199 -0.09069,0 -0.164879,0.113459 -0.164879,0.25212 0,0.138671 -0.07563,0.252119 -0.168075,0.252119 -0.09245,0 -0.168083,0.114201 -0.168083,0.253766 0,0.139576 -0.151268,0.383287 -0.336156,0.541592 -0.184892,0.1583 -0.336165,0.384473 -0.336165,0.502594 0,0.11812 -0.07563,0.214765 -0.168075,0.214765 -0.09245,0 -0.168081,0.09526 -0.168081,0.211688 0,0.116424 -0.151269,0.30616 -0.336158,0.421625 -0.18489,0.115468 -0.336158,0.292951 -0.336158,0.394417 0,0.101472 -0.189091,0.333224 -0.4202,0.515016 -0.23111,0.18179 -0.420202,0.388068 -0.420202,0.458394 0,0.166878 -2.202052,2.36893 -2.368925,2.36893 -0.07033,0 -0.276602,0.18909 -0.458399,0.4202 -0.181789,0.23111 -0.416559,0.420195 -0.521708,0.420195 -0.10516,0 -0.234723,0.11346 -0.287937,0.252121 -0.05319,0.138671 -0.204482,0.252119 -0.336158,0.252119 -0.131672,0 -0.282949,0.113459 -0.336156,0.252119 -0.05319,0.138671 -0.202108,0.25212 -0.330889,0.25212 -0.128774,0 -0.234138,0.07074 -0.234138,0.157213 0,0.08645 -0.264721,0.252924 -0.588277,0.369919 -0.323549,0.117 -0.588276,0.264193 -0.588276,0.327095 0,0.187114 -2.880588,1.376018 -3.852407,1.590001 -0.19227,0.0423 -0.519768,0.115567 -0.727764,0.162746 -0.207999,0.04718 -0.567268,0.122039 -0.798378,0.166345 -0.23111,0.0443 -0.609288,0.123027 -0.840398,0.174921 -0.517182,0.116127 -3.45275,0.263982 -3.546079,0.17861 z m 3.714156,-5.512667 c 1.36252,-0.376512 4.107753,-1.558054 4.508141,-1.940291 0.122154,-0.116621 0.330154,-0.212037 0.462213,-0.212037 0.132068,0 0.24012,-0.07563 0.24012,-0.16808 0,-0.09245 0.11583,-0.16808 0.25739,-0.16808 0.141569,0 0.300934,-0.113459 0.354143,-0.252119 0.05319,-0.138671 0.201466,-0.252119 0.329458,-0.252119 0.128,0 0.327185,-0.151268 0.442647,-0.336159 0.115468,-0.184888 0.284709,-0.33616 0.376097,-0.33616 0.189837,0 2.946493,-2.70195 2.946493,-2.888022 0,-0.06717 0.207998,-0.330147 0.462219,-0.58439 l 0.462215,-0.46226 -0.420195,-0.106971 c -0.23111,-0.05884 -0.514744,-0.03409 -0.630301,0.055 -0.115551,0.08909 -0.210101,0.105621 -0.210101,0.03677 0,-0.06887 -0.113443,-0.03104 -0.252114,0.08403 -0.138671,0.11509 -0.252119,0.152899 -0.252119,0.08403 0,-0.06887 -0.09689,-0.04479 -0.215325,0.0535 -0.118416,0.09829 -0.402058,0.217121 -0.630294,0.264082 -0.228245,0.04697 -0.604071,0.131508 -0.835181,0.187867 -0.23111,0.05637 -0.53365,0.130092 -0.672321,0.163833 -0.138671,0.03374 -0.25212,0.07293 -0.25212,0.08708 0,0.01416 -0.113443,0.05334 -0.252119,0.08708 -0.273508,0.06656 -0.812398,0.200066 -1.344635,0.333125 -0.662563,0.165641 -1.14289,0.268369 -2.353114,0.503258 -0.23111,0.04486 -0.599071,0.117477 -0.817699,0.161396 -1.191615,0.239351 -2.504857,0.343568 -4.308731,0.341928 -1.845636,-0.0016 -2.266504,-0.04178 -3.403611,-0.324333 -0.207998,-0.05169 -0.548362,-0.129861 -0.75636,-0.173741 -0.653059,-0.137749 -2.47917,-0.959553 -2.47917,-1.115701 0,-0.08204 -0.113459,-0.149161 -0.252119,-0.149161 -0.138671,0 -0.252119,-0.07563 -0.252119,-0.168079 0,-0.09245 -0.113459,-0.168079 -0.25212,-0.168079 -0.138671,0 -0.252119,-0.07326 -0.252119,-0.162811 0,-0.08955 -0.119931,-0.116786 -0.266495,-0.06053 -0.318844,0.122352 -0.270412,0.863962 0.162779,2.49242 0.09745,0.366371 1.0359,2.188475 1.154216,2.241061 0.06933,0.03081 0.126057,0.140664 0.126057,0.244119 0,0.265039 1.029151,1.296612 1.293571,1.296612 0.120524,0 0.219145,0.07209 0.219145,0.16021 0,0.130026 1.221145,0.795121 1.722819,0.938336 0.06933,0.01979 0.144961,0.05107 0.168075,0.06949 0.02314,0.01843 0.226519,0.0674 0.452017,0.108849 0.225496,0.04145 0.445579,0.11094 0.489076,0.15443 0.09187,0.09185 4.356532,-0.01581 4.731594,-0.119388 z M 20.895041,23.08133 c 0.577772,-0.20292 1.050498,-0.430591 1.050498,-0.505941 0,-0.07535 0.0993,-0.136991 0.220672,-0.136991 0.271367,0 1.123963,-0.86759 1.123963,-1.143734 0,-0.110496 0.06165,-0.200903 0.136992,-0.200903 0.192415,0 0.87524,-2.004432 0.873185,-2.563213 -0.0012,-0.305858 -0.09036,-0.46222 -0.263743,-0.46222 -0.144122,0 -0.219061,0.06954 -0.16653,0.154529 0.05251,0.08499 -0.01863,0.268677 -0.158169,0.408194 -0.13951,0.139511 -0.253665,0.291066 -0.253665,0.33678 0,0.14432 -1.023958,1.113909 -1.374472,1.3015 -0.922067,0.493474 -2.711904,0.495676 -3.629739,0.0044 -0.422768,-0.226259 -1.513151,-1.316643 -1.739412,-1.739412 -0.491228,-0.917871 -0.489004,-2.707667 0.0043,-3.629805 0.233158,-0.435661 1.52785,-1.704669 1.765492,-1.730465 0.100846,-0.01087 0.240077,-0.01087 0.309414,0 0.06933,0.01087 0.126057,-0.09933 0.126057,-0.245069 0,-0.206635 -0.157263,-0.255208 -0.714339,-0.220627 -0.686702,0.04263 -2.167047,0.602695 -2.283079,0.863774 -0.03083,0.06933 -0.140136,0.126057 -0.242925,0.126057 -0.265413,0 -1.129727,0.859906 -1.129727,1.123964 0,0.121364 -0.06165,0.220673 -0.136992,0.220673 -0.265773,0 -0.874884,2.106358 -0.874884,3.025433 0,0.919076 0.609111,3.025433 0.874884,3.025433 0.07536,0 0.136992,0.0993 0.136992,0.220675 0,0.264058 0.864314,1.123964 1.129727,1.123964 0.102789,0 0.212108,0.06455 0.242925,0.143463 0.03083,0.07891 0.472021,0.301869 0.980462,0.495478 1.238536,0.471626 2.656362,0.473044 3.991894,0.004 z m 1.749267,-6.653025 c 0.254342,-0.254342 0.348657,-1.270714 0.162812,-1.754554 -0.338224,-0.880544 -2.120988,-0.810991 -2.422825,0.09452 -0.22775,0.68324 -0.003,1.606968 0.435983,1.794124 0.423434,0.180413 1.595703,0.09423 1.82403,-0.134093 z"
     id="path874" />
</svg>
