<?xml version="1.0" encoding="UTF-8" standalone="no"?>
<svg
   xmlns:dc="http://purl.org/dc/elements/1.1/"
   xmlns:cc="http://creativecommons.org/ns#"
   xmlns:rdf="http://www.w3.org/1999/02/22-rdf-syntax-ns#"
   xmlns:svg="http://www.w3.org/2000/svg"
   xmlns="http://www.w3.org/2000/svg"
   xmlns:sodipodi="http://sodipodi.sourceforge.net/DTD/sodipodi-0.dtd"
   xmlns:inkscape="http://www.inkscape.org/namespaces/inkscape"
   viewBox="0 0 48 48"
   version="1.1"
   id="svg10"
   sodipodi:docname="class.svg"
   inkscape:version="1.0.2 (e86c870879, 2021-01-15, custom)">
  <metadata
     id="metadata16">
    <rdf:RDF>
      <cc:Work
         rdf:about="">
        <dc:format>image/svg+xml</dc:format>
        <dc:type
           rdf:resource="http://purl.org/dc/dcmitype/StillImage" />
      </cc:Work>
    </rdf:RDF>
  </metadata>
  <defs
     id="defs14" />
  <sodipodi:namedview
     pagecolor="#ffffff"
     bordercolor="#666666"
     borderopacity="1"
     objecttolerance="10"
     gridtolerance="10"
     guidetolerance="10"
     inkscape:pageopacity="0"
     inkscape:pageshadow="2"
     inkscape:window-width="1920"
     inkscape:window-height="1015"
     id="namedview12"
     showgrid="false"
     inkscape:zoom="8.0000002"
     inkscape:cx="34.613144"
     inkscape:cy="22.271449"
     inkscape:window-x="1366"
     inkscape:window-y="37"
     inkscape:window-maximized="1"
     inkscape:current-layer="svg10"
     inkscape:document-rotation="0" />
  <path
     style="fill:none;fill-opacity:1;stroke:#0066b3;stroke-width:2;stroke-linecap:butt;stroke-linejoin:round;stroke-miterlimit:4;stroke-dasharray:none;stroke-opacity:1"
     d="M 3.0835352,8.258068 H 45.126137"
     id="path860-7"
     sodipodi:nodetypes="cc" />
  <rect
     style="opacity:1;fill:none;fill-opacity:0.65;fill-rule:evenodd;stroke:#0066b3;stroke-width:3;stroke-linecap:round;stroke-linejoin:round;stroke-miterlimit:4;stroke-dasharray:none;stroke-opacity:1"
     id="rect842"
     width="42.042603"
     height="44.420135"
     x="3.0835352"
     y="1.837934"
     ry="0" />
  <path
     id="path1032"
     style="fill:none;stroke:#0066b3;stroke-width:1.5;stroke-linecap:round;stroke-linejoin:round;stroke-miterlimit:4;stroke-dasharray:none;stroke-opacity:1"
     d="m 9.8742958,12.966464 c -1.3091602,1.71068 -0.7441461,4.041647 -0.165785,5.916364 1.1292202,1.802669 3.2306632,0.02824 4.7265222,-0.254066 2.643418,-0.806928 5.162365,-1.957462 7.78941,-2.796424 1.789303,-0.845007 3.004579,0.939244 4.000219,2.123606 1.253063,1.704419 1.402691,4.144211 0.162889,5.900198 -0.634216,1.582505 -2.054026,2.622116 -3.697586,2.957153 -2.802883,0.948854 -6.063128,0.556213 -8.376978,-1.360884 -1.768438,-1.379091 -3.049976,-3.374953 -3.553629,-5.561429 m -5.3284803,-4.53437 c 1.0002284,1.263499 2.1836337,3.127909 3.9299904,3.207503 M 24.185363,15.516184 c 3.499107,-0.754536 7.190808,-0.029 10.366706,1.539606 1.100199,1.165732 2.838834,1.499319 3.77568,2.868355 3.067998,3.285491 3.486609,8.665316 1.195389,12.479807 -1.17675,1.383288 -1.843802,3.186028 -3.55945,4.025955 -2.170294,1.37226 -4.777934,2.036901 -7.311771,2.089353 -1.421406,-0.684034 -3.054042,-3.201198 -4.702094,-1.535427 -0.733194,1.682459 1.300746,2.009501 2.341276,2.223717 -0.189666,1.212063 -0.717193,4.122305 1.495863,3.119172 1.266728,-1.088504 0.461174,-2.542437 0.436429,-3.840467 m -8.5903,-18.608932 c 1.970944,-1.446231 3.254711,2.849348 0.799596,2.630719 -1.276913,0.0049 -2.019059,-1.965652 -0.799596,-2.630719 z M 35.511958,18.06936 c -0.0204,1.887563 0.38291,3.870289 -0.52861,5.632892 -0.880674,2.030486 -2.713833,3.564878 -4.789781,4.273055 -1.285164,-0.784191 -2.594555,-1.644881 -4.156608,-1.663485 -0.329085,-0.05148 -0.669994,-0.131468 -0.934692,-0.346398 m 5.118412,2.092266 c 0.692993,1.405638 1.342636,3.157676 0.84004,4.696368 -0.695855,1.869258 -1.649149,3.633809 -2.870536,5.208035 l -0.08747,0.172754 m 3.260799,-5.83397 c 1.772453,0.866145 3.72202,2.068099 5.757405,1.338637 0.405275,-0.106596 0.836996,-0.277064 1.256503,-0.132999 m -10.415277,4.676604 c -0.283987,0.542622 -0.965054,0.570256 -1.425526,0.882375" />
</svg>
