<?xml version="1.0" encoding="UTF-8" standalone="no"?>
<svg
   xmlns:dc="http://purl.org/dc/elements/1.1/"
   xmlns:cc="http://creativecommons.org/ns#"
   xmlns:rdf="http://www.w3.org/1999/02/22-rdf-syntax-ns#"
   xmlns:svg="http://www.w3.org/2000/svg"
   xmlns="http://www.w3.org/2000/svg"
   xmlns:sodipodi="http://sodipodi.sourceforge.net/DTD/sodipodi-0.dtd"
   xmlns:inkscape="http://www.inkscape.org/namespaces/inkscape"
   version="1.1"
   id="Layer_1"
   x="0px"
   y="0px"
   viewBox="0 0 65 65"
   enable-background="new 0 0 96 96"
   xml:space="preserve"
   width="100%"
   height="100%"
   sodipodi:docname="translation.svg"
   inkscape:version="1.0.2 (e86c870879, 2021-01-15, custom)"><metadata
   id="metadata13"><rdf:RDF><cc:Work
       rdf:about=""><dc:format>image/svg+xml</dc:format><dc:type
         rdf:resource="http://purl.org/dc/dcmitype/StillImage" /></cc:Work></rdf:RDF></metadata><defs
   id="defs11" /><sodipodi:namedview
   pagecolor="#ffffff"
   bordercolor="#666666"
   borderopacity="1"
   objecttolerance="10"
   gridtolerance="10"
   guidetolerance="10"
   inkscape:pageopacity="0"
   inkscape:pageshadow="2"
   inkscape:window-width="1920"
   inkscape:window-height="1015"
   id="namedview9"
   showgrid="false"
   inkscape:zoom="6.4538462"
   inkscape:cx="14.942838"
   inkscape:cy="34.593565"
   inkscape:window-x="1366"
   inkscape:window-y="37"
   inkscape:window-maximized="1"
   inkscape:current-layer="Layer_1" />
<g
   transform="translate(-15.5,-15.5)"
   id="g6"
   style="fill:#0066b3;fill-opacity:1">
	<path
   d="m 46.4,52.6 c -4.2,-4.1 -7.9,-7.7 -10,-16 H 51.1 V 30.4 H 36.5 v -8.2 h -6.3 v 8.3 H 15.5 v 6.2 h 15 c 0,0 -0.1,1.2 -0.3,2.1 -2.1,8.2 -4.6,13.4 -14.7,18.5 l 2.1,6.2 C 27.2,58.4 32.2,52 34.4,44.9 c 2.1,5.4 5.7,9.8 9.8,13.8 l 2.2,-6.1 z"
   id="path2"
   style="fill:#0066b3;fill-opacity:1" />
	<path
   d="M 65.8,32.5 H 57.4 L 42.7,73.8 H 49 L 53.2,61.4 H 70 l 4.2,12.4 h 6.3 L 65.8,32.5 z m -10.5,22.7 6.3,-16.5 6.3,16.6 -12.6,-0.1 0,0 z"
   id="path4"
   style="fill:#0066b3;fill-opacity:1" />
</g>
</svg>
